<?xml version="1.0" standalone="no"?>
<!DOCTYPE svg PUBLIC "-//W3C//DTD SVG 20010904//EN"
 "http://www.w3.org/TR/2001/REC-SVG-20010904/DTD/svg10.dtd">
<svg version="1.0" xmlns="http://www.w3.org/2000/svg"
 width="256.000000pt" height="256.000000pt" viewBox="0 0 256.000000 256.000000"
 preserveAspectRatio="xMidYMid meet">

<g transform="translate(0.000000,256.000000) scale(0.100000,-0.100000)"
fill="#000000" stroke="none">
<path d="M1102 1395 c4 -4 3 -14 -4 -22 -6 -7 -9 -15 -7 -18 3 -2 10 4 17 15
9 15 9 21 -1 26 -6 4 -9 4 -5 -1z"/>
<path d="M1154 1333 c21 -26 19 -27 -18 -13 -23 8 -26 7 -27 -13 -1 -21 -1
-21 -9 3 -4 14 -9 19 -10 13 -7 -37 -7 -85 -2 -143 l7 -65 6 55 6 55 1 -48 c1
-29 -4 -57 -14 -72 -10 -15 -13 -32 -9 -42 7 -17 8 -17 14 1 7 17 8 18 14 3 3
-9 2 -17 -4 -17 -6 0 -7 -5 -4 -10 4 -6 8 -23 11 -38 8 -48 15 -62 30 -62 8 0
13 -4 10 -8 -7 -11 31 -71 49 -78 8 -4 12 -11 8 -17 -3 -5 -1 -7 5 -3 5 3 12
0 15 -6 2 -7 4 1 3 19 -1 17 -5 29 -9 26 -4 -3 -7 72 -7 167 1 129 -1 175 -12
187 -7 9 -8 14 -2 10 7 -4 14 0 18 8 3 8 0 17 -6 21 -7 4 -8 3 -4 -4 4 -7 5
-12 2 -12 -3 0 -12 15 -19 33 -8 17 -25 41 -38 52 l-24 20 19 -22z m-14 -38
c11 -13 10 -14 -4 -9 -9 3 -16 10 -16 15 0 13 6 11 20 -6z m-24 -30 c-4 -24
-16 -30 -16 -7 0 12 4 22 9 22 5 0 8 -7 7 -15z m78 -353 c3 -5 -1 -9 -9 -9 -8
0 -12 4 -9 9 3 4 7 8 9 8 2 0 6 -4 9 -8z"/>
<path d="M1082 1028 c2 -6 10 -13 16 -14 7 -1 8 0 2 3 -5 2 -8 9 -4 14 3 5 0
9 -6 9 -7 0 -10 -5 -8 -12z"/>
</g>
</svg>
