<?xml version="1.0" standalone="no"?>
<!DOCTYPE svg PUBLIC "-//W3C//DTD SVG 20010904//EN"
 "http://www.w3.org/TR/2001/REC-SVG-20010904/DTD/svg10.dtd">
<svg version="1.0" xmlns="http://www.w3.org/2000/svg"
 width="256.000000pt" height="256.000000pt" viewBox="0 0 256.000000 256.000000"
 preserveAspectRatio="xMidYMid meet">

<g transform="translate(0.000000,256.000000) scale(0.100000,-0.100000)"
fill="#000000" stroke="none">
<path d="M1135 1321 c-27 -6 -31 -11 -35 -54 -3 -26 -2 -51 4 -57 6 -6 5 -18
-2 -34 -8 -19 -8 -26 1 -29 9 -3 9 -7 0 -18 -7 -9 -9 -20 -3 -29 6 -9 5 -17
-3 -22 -7 -5 -8 -8 -1 -8 6 0 9 -12 6 -29 -2 -16 1 -32 7 -35 6 -4 11 -18 11
-31 0 -21 82 -135 98 -135 4 0 6 95 5 211 l-2 210 -28 33 c-24 28 -33 32 -58
27z"/>
</g>
</svg>
